<svg xmlns="http://www.w3.org/2000/svg" viewBox="0 0 2048 1152" width="2048" height="1152">
  <defs>
    <linearGradient id="bgGradient" x1="0%" y1="0%" x2="100%" y2="100%">
      <stop offset="0%" style="stop-color:#0b1b3a;stop-opacity:1" />
      <stop offset="100%" style="stop-color:#1c4e96;stop-opacity:1" />
    </linearGradient>
    
    <filter id="blueGlow" x="-50%" y="-50%" width="200%" height="200%">
      <feGaussianBlur in="SourceGraphic" stdDeviation="8" result="blur" />
      <feColorMatrix in="blur" type="matrix" values="0 0 0 0 0  0 1 0 0 0  0 0 1 0 0  0 0 0 18 -7" result="glow" />
      <feMerge>
        <feMergeNode in="glow" />
        <feMergeNode in="SourceGraphic" />
      </feMerge>
    </filter>
    
    <filter id="orangeGlow" x="-50%" y="-50%" width="200%" height="200%">
      <feGaussianBlur in="SourceGraphic" stdDeviation="6" result="blur" />
      <feColorMatrix in="blur" type="matrix" values="1 0 0 0 0.2  0 0.5 0 0 0  0 0 0 0 0  0 0 0 18 -7" result="glow" />
      <feMerge>
        <feMergeNode in="glow" />
        <feMergeNode in="SourceGraphic" />
      </feMerge>
    </filter>
    
    <filter id="greenGlow" x="-50%" y="-50%" width="200%" height="200%">
      <feGaussianBlur in="SourceGraphic" stdDeviation="6" result="blur" />
      <feColorMatrix in="blur" type="matrix" values="0 0 0 0 0.2  0 1 0 0 0  0 0 0 0 0  0 0 0 18 -7" result="glow" />
      <feMerge>
        <feMergeNode in="glow" />
        <feMergeNode in="SourceGraphic" />
      </feMerge>
    </filter>
    
    <linearGradient id="orangeBlockGradient" x1="0%" y1="0%" x2="0%" y2="100%">
      <stop offset="0%" style="stop-color:#ff9f43;stop-opacity:1" />
      <stop offset="100%" style="stop-color:#e55e3c;stop-opacity:1" />
    </linearGradient>
    
    <linearGradient id="greenBlockGradient" x1="0%" y1="0%" x2="0%" y2="100%">
      <stop offset="0%" style="stop-color:#5ce082;stop-opacity:1" />
      <stop offset="100%" style="stop-color:#2e9d68;stop-opacity:1" />
    </linearGradient>

    <linearGradient id="textAccent" x1="0%" y1="0%" x2="100%" y2="0%">
      <stop offset="0%" stop-color="#ff9f43" />
      <stop offset="100%" stop-color="#5ce082" />
    </linearGradient>
  </defs>

  <rect width="2048" height="1152" fill="url(#bgGradient)" />

  <path d="M 0 0 L 2048 1152" stroke="#00f7ff" stroke-width="2" opacity="0.05" />
  <path d="M 2048 0 L 0 1152" stroke="#00f7ff" stroke-width="2" opacity="0.05" />

  <g transform="translate(1024, 576)">
    
    <g transform="translate(-500, -250)">
      <path d="M80,120 L180,120 L220,150 L432,150 L432,400 L80,400 Z" 
            fill="none" stroke="#00f7ff" stroke-width="8" filter="url(#blueGlow)" stroke-linecap="round" stroke-linejoin="round" transform="translate(0, -10)"/>
      <path d="M84,124 L180,124 L220,154 L428,154 L428,396 L84,396 Z" 
            fill="#003f5c" stroke="none" transform="translate(0, -10)"/>

      <g filter="url(#orangeGlow)" transform="translate(100, 170)">
        <rect x="0" y="0" width="312" height="90" rx="16" fill="url(#orangeBlockGradient)"/>
        <path d="M20,45 L28,35 L36,55 L44,30 L52,60 L60,40 L68,50 L76,20 L84,70 L92,40 L100,50 L108,30 L116,60 L124,35 L132,55 L140,25 L148,65 L156,45 L164,55 L172,35 L180,65 L188,40 L196,50 L204,25 L212,70 L220,40 L228,55 L236,30 L244,60 L252,40 L260,50 L268,30 L276,65 L284,45 L292,55" 
              fill="none" stroke="#ffd7a8" stroke-width="4" stroke-linecap="round" stroke-linejoin="round"/>
      </g>

      <g filter="url(#greenGlow)" transform="translate(100, 280)">
        <rect x="0" y="0" width="312" height="90" rx="16" fill="url(#greenBlockGradient)"/>
        <path d="M20,45 L28,55 L36,35 L44,60 L52,30 L60,50 L68,40 L76,70 L84,20 L92,50 L100,40 L108,60 L116,30 L124,55 L132,35 L140,65 L148,25 L156,45 L164,35 L172,55 L180,25 L188,50 L196,40 L204,65 L212,20 L220,50 L228,35 L236,60 L244,30 L252,50 L260,40 L268,60 L276,25 L284,45 L292,35" 
              fill="none" stroke="#b5ffcd" stroke-width="4" stroke-linecap="round" stroke-linejoin="round"/>
      </g>
    </g>

    <text x="30" y="-20" font-family="system-ui, -apple-system, sans-serif" font-size="84" font-weight="900" fill="#ffffff" text-anchor="start" dominant-baseline="middle" letter-spacing="2">
      SessionPrep
    </text>

    <text x="35" y="45" font-family="system-ui, -apple-system, sans-serif" font-size="28" font-weight="600" fill="url(#textAccent)" text-anchor="start" dominant-baseline="middle" letter-spacing="6">
      Mix Prep Assistant
    </text>

  </g>
</svg>