<svg height="512" viewBox="0 0 512 512" width="512" xmlns="[http://www.w3.org/2000/svg](http://www.w3.org/2000/svg)">
	<defs>
		<linearGradient id="bgGradient" x1="0%" x2="100%" y1="0%" y2="100%">
			<stop offset="0%" style="stop-color:#0b1b3a;stop-opacity:1"/>
			<stop offset="100%" style="stop-color:#1c4e96;stop-opacity:1"/>
		</linearGradient>
		<filter height="200%" id="blueGlow" width="200%" x="-50%" y="-50%">
			<feGaussianBlur in="SourceGraphic" result="blur" stdDeviation="8"/>
			<feColorMatrix in="blur" result="glow" type="matrix" values="0 0 0 0 0  0 1 0 0 0  0 0 1 0 0  0 0 0 18 -7"/>
			<feMerge>
				<feMergeNode in="glow"/>
				<feMergeNode in="SourceGraphic"/>
			</feMerge>
		</filter>
		<filter height="200%" id="orangeGlow" width="200%" x="-50%" y="-50%">
			<feGaussianBlur in="SourceGraphic" result="blur" stdDeviation="6"/>
			<feColorMatrix in="blur" result="glow" type="matrix" values="1 0 0 0 0.2  0 0.5 0 0 0  0 0 0 0 0  0 0 0 18 -7"/>
			<feMerge>
				<feMergeNode in="glow"/>
				<feMergeNode in="SourceGraphic"/>
			</feMerge>
		</filter>
		<filter height="200%" id="greenGlow" width="200%" x="-50%" y="-50%">
			<feGaussianBlur in="SourceGraphic" result="blur" stdDeviation="6"/>
			<feColorMatrix in="blur" result="glow" type="matrix" values="0 0 0 0 0.2  0 1 0 0 0  0 0 0 0 0  0 0 0 18 -7"/>
			<feMerge>
				<feMergeNode in="glow"/>
				<feMergeNode in="SourceGraphic"/>
			</feMerge>
		</filter>
		<linearGradient id="orangeBlockGradient" x1="0%" x2="0%" y1="0%" y2="100%">
			<stop offset="0%" style="stop-color:#ff9f43;stop-opacity:1"/>
			<stop offset="100%" style="stop-color:#e55e3c;stop-opacity:1"/>
		</linearGradient>
		<linearGradient id="greenBlockGradient" x1="0%" x2="0%" y1="0%" y2="100%">
			<stop offset="0%" style="stop-color:#5ce082;stop-opacity:1"/>
			<stop offset="100%" style="stop-color:#2e9d68;stop-opacity:1"/>
		</linearGradient>
	</defs>
	<circle cx="256" cy="256" fill="url(#bgGradient)" r="236" stroke="#1c4e96" stroke-width="4"/>
	<path d="M80,120 L180,120 L220,150 L432,150 L432,400 L80,400 Z" fill="none" filter="url(#blueGlow)" stroke="#00f7ff" stroke-linecap="round" stroke-linejoin="round" stroke-width="8" transform="translate(0, -10)"/>
	<path d="M84,124 L180,124 L220,154 L428,154 L428,396 L84,396 Z" fill="#003f5c" stroke="none" transform="translate(0, -10)"/>
	<g filter="url(#orangeGlow)" transform="translate(100, 170)">
		<rect fill="url(#orangeBlockGradient)" height="90" rx="16" width="312" x="0" y="0"/>
		<path d="M20,45 L28,35 L36,55 L44,30 L52,60 L60,40 L68,50 L76,20 L84,70 L92,40 L100,50 L108,30 L116,60 L124,35 L132,55 L140,25 L148,65 L156,45 L164,55 L172,35 L180,65 L188,40 L196,50 L204,25 L212,70 L220,40 L228,55 L236,30 L244,60 L252,40 L260,50 L268,30 L276,65 L284,45 L292,55" fill="none" stroke="#ffd7a8" stroke-linecap="round" stroke-linejoin="round" stroke-width="4"/>
	</g>
	<g filter="url(#greenGlow)" transform="translate(100, 280)">
		<rect fill="url(#greenBlockGradient)" height="90" rx="16" width="312" x="0" y="0"/>
		<path d="M20,45 L28,55 L36,35 L44,60 L52,30 L60,50 L68,40 L76,70 L84,20 L92,50 L100,40 L108,60 L116,30 L124,55 L132,35 L140,65 L148,25 L156,45 L164,35 L172,55 L180,25 L188,50 L196,40 L204,65 L212,20 L220,50 L228,35 L236,60 L244,30 L252,50 L260,40 L268,60 L276,25 L284,45 L292,35" fill="none" stroke="#b5ffcd" stroke-linecap="round" stroke-linejoin="round" stroke-width="4"/>
	</g>
</svg>